<?xml version="1.0"?>
<svg xmlns="http://www.w3.org/2000/svg" id="Line_cutting_stroke_ex" data-name="Line cutting stroke ex" width="512" height="512" viewBox="0 0 512 512"><g><path d="M192,180H176c0,1.41-3.0371,4-8,4s-8-2.59-8-4H144c0,11.2148,10.542,20,24,20S192,191.2148,192,180Z"/><path d="M317.3438,199.5479l6.4658,4.7114a19.8171,19.8171,0,0,0,11.7182,3.8271,20.3975,20.3975,0,0,0,3.1592-.2475,19.8644,19.8644,0,0,0,13.065-7.9659l23.5561-32.3281a20.0231,20.0231,0,0,0-4.3862-27.9424l-6.4649-4.71a20.0356,20.0356,0,0,0-27.9428,4.3852L312.958,171.6055A20.0235,20.0235,0,0,0,317.3438,199.5479Zm8.5458-18.52L349.4458,148.7a3.9847,3.9847,0,0,1,2.6147-1.582,4.1527,4.1527,0,0,1,.64-.0494,3.9181,3.9181,0,0,1,2.334.7544l6.4653,4.711a4.0528,4.0528,0,0,1,.877,5.5879L338.82,190.4507a4.035,4.035,0,0,1-5.5879.8769l-6.4658-4.7114A4.0525,4.0525,0,0,1,325.89,181.0283Z"/><path d="M377.4131,225.3892A32,32,0,0,0,417.3892,246.6a32.1177,32.1177,0,0,0,5.2685-2.1382,24.0043,24.0043,0,1,0,13.208-44.207,32.0019,32.0019,0,0,0-58.4526,25.1343Zm16.4595-16.8819a16,16,0,0,1,29.4306,2.8076,8.0006,8.0006,0,0,0,9.9947,5.3028,8,8,0,1,1-3.816,12.7573A8,8,0,0,0,418.22,228.33a16.0034,16.0034,0,0,1-24.3471-19.8228Z"/><path d="M480,452.6865v-8.26a37.7507,37.7507,0,0,0-11.13-26.87l-15.2134-15.2133a8,8,0,0,0-11.3134,0L427.13,417.5566a37.7507,37.7507,0,0,0-11.13,26.87V448h-8v-3.5737a37.7507,37.7507,0,0,0-11.13-26.87L384.5432,405.23l42.179-15.2634-5.4444-15.0449-97.8066,35.3935a32.4685,32.4685,0,0,1-4.56,1.2829l-9.2546-9.2545a8,8,0,0,0-11.3134,0l-4.106,4.1059a31.8461,31.8461,0,0,1-11.7451-15.3354L271.603,361.0229,467.19,290.2446l10.8892,30.09a32,32,0,0,1-19.2017,40.98l-21.6,7.8168,5.4444,15.045,21.6-7.8169a48,48,0,0,0,28.8022-61.4688l-13.6113-37.6128a8,8,0,0,0-10.2446-4.8l-69.918,25.3016a32.0134,32.0134,0,1,0-51.0892,18.488l-28.4933,10.311a28.1,28.1,0,0,0-15.85-21.7558l-10.678-5.5481,10.3962-3.1888a20.0354,20.0354,0,0,0,13.2569-24.9848l-7.0371-22.9458a20.026,20.026,0,0,0-24.9854-13.2564l-22.9453,7.0376a20.0351,20.0351,0,0,0-13.2564,24.9854l3.3544,10.937L230.399,266.6228l-20.1616-47.044,8.9291-4.5217A37.8188,37.8188,0,0,0,240,181.1558V168h6a18.02,18.02,0,0,0,18-18V130a17.9969,17.9969,0,0,0-8-14.96V84a68.0773,68.0773,0,0,0-68-68H116A28.0314,28.0314,0,0,0,88,44V68a27.9177,27.9177,0,0,0,8.4229,20H96v24H90a18.02,18.02,0,0,0-18,18v20a18.02,18.02,0,0,0,18,18h6v13.459a37.7931,37.7931,0,0,0,21.0059,33.9883l8.67,4.3349L105.601,266.6228,77.0439,281.46l7.377,14.1983,26.2732-13.6511,23.365,23.365a47.9992,47.9992,0,0,0,67.8818,0l23.365-23.365,71.387,37.0915c.1108.0571.2226.1123.3359.1646A12.0356,12.0356,0,0,1,304,330.1592v2.125L258.6362,348.7a8,8,0,0,0-4.8,10.2446l2.8059,7.7539-48.7883,19.3975a63.6347,63.6347,0,0,0-37.3247,3.9209q-.2424.1032-.4766.2217L134.7708,408.094a8.0054,8.0054,0,0,0-1.3006.3166L96,420.9V368H80v64a8,8,0,0,0,10.53,7.5894l41.2529-13.751,16.27,34.6367L102.3623,480H44a12.0137,12.0137,0,0,1-12-12V330.1592a12.0356,12.0356,0,0,1,6.9712-10.8955c.1133-.0523.2251-.1075.3359-.1646l28.0611-14.58-7.377-14.1982L32.082,304.8223A28.0836,28.0836,0,0,0,16,330.1592V468a28.0314,28.0314,0,0,0,28,28H240V480h-96.92l18.8691-8.0635.0049-.0019L250.27,434.3032a8,8,0,0,0,4.2241-10.4956q-.6245-1.4655-1.3132-2.8838l22.5283-9.9454a47.6486,47.6486,0,0,0,7.0966,6.9064A37.7419,37.7419,0,0,0,272,444.4263v8.26l-13.6567,13.6568A7.9986,7.9986,0,0,0,256,472v16a8,8,0,0,0,8,8H488a8,8,0,0,0,8-8V472a7.9986,7.9986,0,0,0-2.3433-5.6567ZM363.3447,275.8252a16,16,0,1,1-10.605,19.9883A16.05,16.05,0,0,1,363.3447,275.8252ZM264.269,259.189a3.9836,3.9836,0,0,1,2.3477-1.9561l22.9453-7.0376a3.8615,3.8615,0,0,1,1.1328-.1694,4.0673,4.0673,0,0,1,3.8643,2.8208l7.0371,22.9453a4.0355,4.0355,0,0,1-2.6514,4.9966L276,287.8262a4.0542,4.0542,0,0,1-4.9971-2.6514L263.9658,262.23A3.9841,3.9841,0,0,1,264.269,259.189ZM248,150a2.002,2.002,0,0,1-2,2h-6V136h8Zm-8-66v36H196a52.0589,52.0589,0,0,1-52-52V32h44A52.0589,52.0589,0,0,1,240,84ZM104,44a12.0137,12.0137,0,0,1,12-12h12V80H116a12.0137,12.0137,0,0,1-12-12ZM90,152a2.002,2.002,0,0,1-2-2V130a2.002,2.002,0,0,1,2-2h6v24Zm22,29.459V95.7147A28.12,28.12,0,0,0,116,96h18.0352A68.0963,68.0963,0,0,0,196,136h28v45.1558a21.8947,21.8947,0,0,1-12.0615,19.6269l-38.5742,19.5337a12.0556,12.0556,0,0,1-10.7881.0278l-38.4151-19.2075A21.8816,21.8816,0,0,1,112,181.459Zm78.6274,112.6a32,32,0,0,1-45.2548,0l-23.8858-23.8862L140.0107,226.95l15.41,7.7053a28.1216,28.1216,0,0,0,25.1714-.0645l15.342-7.769,18.5789,43.3511ZM432,444.4263a21.8572,21.8572,0,0,1,6.4434-15.5562L448,419.3135l9.5566,9.5566A21.8572,21.8572,0,0,1,464,444.4263V448H432Zm-40,0V448H360v-3.5737a21.8572,21.8572,0,0,1,6.4434-15.5562L376,419.3135l9.5566,9.5566A21.8572,21.8572,0,0,1,392,444.4263Zm-36.87-26.87a37.7507,37.7507,0,0,0-11.13,26.87V448h-8v-3.5737a37.76,37.76,0,0,0-5.4607-19.6538l27.2278-9.8531ZM304,419.3135l9.5566,9.5566A21.8572,21.8572,0,0,1,320,444.4263V448H288v-3.5737a21.8572,21.8572,0,0,1,6.4434-15.5562ZM162.8838,454.146l-15.5752-34.4648,29.7246-15.043a47.7691,47.7691,0,0,1,31.8912-1.84l.0312.0784.1013-.04a48.0234,48.0234,0,0,1,26.9685,20.1448Zm81.424-46.7944a63.818,63.818,0,0,0-14.7272-12.6753l32.5083-12.9248,5.5385,15.3051ZM480,480H272v-4.6865L283.3135,464h185.373L480,475.3135Z"/><rect x="128" y="128" width="16" height="16"/><rect x="416.3515" y="138.3456" width="16.0001" height="16.0001" transform="translate(-24.259 130.8567) rotate(-17.0503)"/><rect x="271.6484" y="191.8539" width="16.0001" height="16.0001" transform="translate(-46.3082 90.78) rotate(-17.0503)"/><rect x="471.6484" y="242.3456" width="16.0001" height="16.0001" transform="translate(-52.3225 151.6413) rotate(-17.0503)"/></g></svg>
