<svg id="Layer_3" enable-background="new 0 0 64 64" height="512" viewBox="0 0 64 64" width="512"
    xmlns="http://www.w3.org/2000/svg">
    <g width="256" height="256">
        <path
            d="m50 49c-1.654 0-3 1.346-3 3s1.346 3 3 3 3-1.346 3-3-1.346-3-3-3zm0 4c-.552 0-1-.448-1-1s.448-1 1-1 1 .448 1 1-.448 1-1 1z" />
        <path
            d="m18 49c-1.654 0-3 1.346-3 3s1.346 3 3 3 3-1.346 3-3-1.346-3-3-3zm0 4c-.552 0-1-.448-1-1s.448-1 1-1 1 .448 1 1-.448 1-1 1z" />
        <path
            d="m60.236 36-1.334-.667-1.359-8.154c-.403-2.422-2.478-4.179-4.932-4.179h-10.611c-1.627 0-3.061.793-3.974 2h-3.026v-10h-6v-10h-14v10h-6v10h-6v10c-1.103 0-2 .897-2 2v2c0 1.103.897 2 2 2v9c0 1.654 1.346 3 3 3h5.08c.488 3.386 3.401 6 6.92 6s6.432-2.614 6.92-6h18.16c.488 3.386 3.401 6 6.92 6s6.432-2.614 6.92-6h3.08c1.654 0 3-1.346 3-3v-9.528c0-1.906-1.059-3.618-2.764-4.472zm.764 9.382-2-1v-1.382h2zm-40-18.382h2v2h-2zm4 4v-4h2v8h-10v-8h2v4zm12 4h-8v-8h2v4h6zm0-7v1h-4v-2h4.101c-.066.323-.101.658-.101 1zm-4-3h-4-2-4v-8h2v4h6v-4h2zm-6-8h2v2h-2zm-6-10h2v2h-2zm-4 0h2v4h6v-4h2v8h-4-2-4zm-2 10h2v2h-2zm-4 0h2v4h6v-4h2v8h-4-2-4zm-2 10h2v2h-2zm-4 0h2v4h6v-4h2v8h-10zm-2 10h34v2h-34zm2 8h3.719l-.5 2h-3.219zm0 5v-1h4.781l1.5-6h-6.281v-2h32v10h-12.08c-.488-3.386-3.401-6-6.92-6s-6.432 2.614-6.92 6h-5.08c-.552 0-1-.448-1-1zm13 7c-2.757 0-5-2.243-5-5s2.243-5 5-5 5 2.243 5 5-2.243 5-5 5zm31-22h4v2h-1-1c-1.103 0-2-.897-2-2zm0-2c-1.103 0-2 .897-2 2 0 .732.212 1.409.556 2h-4.556v-8h9.046l.749 4zm-6 6h8 1 1v6.685c-.911-.434-1.926-.685-3-.685-3.519 0-6.432 2.614-6.92 6h-.08zm7 18c-2.757 0-5-2.243-5-5s2.243-5 5-5 5 2.243 5 5-2.243 5-5 5zm10-6h-3.08c-.216-1.502-.906-2.852-1.92-3.889v-13.111l-.987-5.366c-.176-.946-1.003-1.634-1.966-1.634h-9.047c-1.103 0-2 .897-2 2v22h-2v-23c0-1.654 1.346-3 3-3h10.611c1.473 0 2.717 1.055 2.959 2.507l1.527 9.16 2.244 1.122c1.023.512 1.659 1.54 1.659 2.683v.528h-4v4.618l4 2v2.382c0 .552-.448 1-1 1z" />
    </g>
    <g width="256" height="256">
        <path
            d="m62 31h-8.586l9.293-9.293c.391-.391.391-1.023 0-1.414l-19-19c-.391-.391-1.023-.391-1.414 0l-29.707 29.707h-10.586c-.553 0-1 .448-1 1v26c0 .552.447 1 1 1h14.586l3.707 3.707c.195.195.451.293.707.293s.512-.098.707-.293l3.708-3.707h36.585c.553 0 1-.448 1-1v-26c0-.552-.447-1-1-1zm-19-27.586 17.586 17.586-10 10h-7.635c-.229-2.56-1.333-4.938-3.173-6.778-4.288-4.288-11.267-4.289-15.557 0-1.839 1.84-2.943 4.218-3.173 6.778h-5.635zm-15.773 27.586c-.136-.65.046-1.345.53-1.828l1.829 1.828zm10.788 0c-.11-.145-.228-.285-.358-.414-1.561-1.559-4.097-1.56-5.657 0l-2.829-2.828c.756-.755 2.072-.755 2.828 0l1.414-1.414c-.756-.755-1.76-1.171-2.828-1.171s-2.073.416-2.828 1.171l-.001.001-.707-.707-1.414 1.414.707.707c-.879.879-1.268 2.07-1.143 3.243h-2.141c.223-2.025 1.115-3.902 2.576-5.364 3.51-3.509 9.219-3.508 12.729 0 1.461 1.462 2.354 3.339 2.576 5.364h-2.924zm-17.015 29.586-1.586-1.586h3.172zm40-3.586h-58v-24h58z" />
        <path
            d="m29 48h-2c0 2.206 1.794 4 4 4v1h2v-1c2.206 0 4-1.794 4-4s-1.794-4-4-4v-4c1.103 0 2 .897 2 2h2c0-2.206-1.794-4-4-4v-1h-2v1c-2.206 0-4 1.794-4 4s1.794 4 4 4v4c-1.103 0-2-.897-2-2zm0-6c0-1.103.897-2 2-2v4c-1.103 0-2-.897-2-2zm4 4c1.103 0 2 .897 2 2s-.897 2-2 2z" />
        <path
            d="m32 56c6.065 0 11-4.935 11-11s-4.935-11-11-11-11 4.935-11 11 4.935 11 11 11zm0-20c4.963 0 9 4.038 9 9s-4.037 9-9 9-9-4.038-9-9 4.037-9 9-9z" />
        <path d="m59 54v-18c0-.552-.447-1-1-1h-12v2h11v16h-11v2h12c.553 0 1-.448 1-1z" />
        <path d="m6 55h12v-2h-11v-16h11v-2h-12c-.553 0-1 .448-1 1v18c0 .552.447 1 1 1z" />
        <path d="m46 49h2v2h-2z" />
        <path d="m50 49h2v2h-2z" />
        <path d="m46 39h2v2h-2z" />
        <path d="m50 39h2v2h-2z" />
        <path
            d="m43.272 9.414 11.313 11.314-7.778 7.778 1.414 1.414 8.485-8.485c.391-.391.391-1.023 0-1.414l-12.727-12.728c-.375-.375-1.039-.375-1.414 0l-8.485 8.485 1.414 1.414z" />
        <path d="m44.394 24.678h2v2h-2z" transform="matrix(.707 -.707 .707 .707 -4.861 39.619)" />
        <path d="m47.222 21.849h2v2h-2z" transform="matrix(.707 -.707 .707 .707 -2.033 40.79)" />
        <path d="m37.322 17.607h2v2h-2z" transform="matrix(.707 -.707 .707 .707 -1.932 32.548)" />
        <path d="m40.15 14.778h2v2h-2z" transform="matrix(.707 -.707 .707 .707 .896 33.719)" />
        <path d="m12 39h2v2h-2z" />
        <path d="m16 39h2v2h-2z" />
        <path d="m12 49h2v2h-2z" />
        <path d="m16 49h2v2h-2z" />
    </g>
</svg>